Coordinates
version=1
nRows=29
nColumns=22
inDegrees=yes

Units are S.I. units (second, meters, Newtons, ...)
If the header above contains a line with 'inDegrees', this indicates whether rotational values are in degrees (yes) or radians (no).

endheader
time	pelvis_tilt	pelvis_list	pelvis_rotation	pelvis_tx	pelvis_ty	pelvis_tz	hip_flexion_r	hip_adduction_r	hip_rotation_r	knee_angle_r	ankle_angle_r	subtalar_angle_r	hip_flexion_l	hip_adduction_l	hip_rotation_l	knee_angle_l	ankle_angle_l	subtalar_angle_l	lumbar_extension	lumbar_bending	lumbar_rotation
      0.01000000	      2.65416119	     -0.05907038	      0.37990085	     -0.60031396	      1.08657741	      1.15587848	     -3.69989401	      0.30528777	     -5.22557322	    -11.86656918	     13.59222803	     -1.65358872	     -4.87338755	      1.54747155	      2.91383060	     -9.10704467	     12.23338448	     -4.21548693	     -1.04467879	     -2.06550976	     -6.29786375
      0.02000000	      2.64466646	     -0.07526921	      0.32110305	     -0.60036737	      1.08656644	      1.15627445	     -3.70435455	      0.33664174	     -5.16489537	    -11.82641429	     13.59336295	     -1.64362535	     -4.83849431	      1.51979015	      2.85354506	     -9.15321837	     12.24480452	     -4.23410443	     -1.02788857	     -2.08235364	     -6.29699820
      0.03000000	      2.63462669	     -0.11089835	      0.25511387	     -0.60041927	      1.08655565	      1.15674143	     -3.71518840	      0.39231542	     -5.10361174	    -11.77089761	     13.57774255	     -1.63364528	     -4.79881938	      1.46834986	      2.78459872	     -9.20902151	     12.27231926	     -4.24398816	     -1.00715699	     -2.08411876	     -6.29010251
      0.04000000	      2.62188798	     -0.15280436	      0.17311458	     -0.60048100	      1.08654072	      1.15726347	     -3.72177858	      0.45530404	     -5.02782685	    -11.71445450	     13.55749435	     -1.62240687	     -4.75611696	      1.40953815	      2.70509797	     -9.26701710	     12.30791258	     -4.24904591	     -0.98260871	     -2.07934214	     -6.27292826
      0.05000000	      2.60847413	     -0.19402217	      0.08486206	     -0.60054579	      1.08652255	      1.15781364	     -3.72746083	      0.51799918	     -4.94706902	    -11.65778536	     13.54016866	     -1.61132501	     -4.71268198	      1.35070454	      2.62301472	     -9.32546120	     12.34286491	     -4.25105121	     -0.95759409	     -2.07644074	     -6.25383390
      0.06000000	      2.59424232	     -0.23627303	     -0.01284101	     -0.60061499	      1.08649974	      1.15838573	     -3.72874747	      0.58181030	     -4.85708282	    -11.60618334	     13.52371076	     -1.60024786	     -4.66974732	      1.29077550	      2.53457709	     -9.38291515	     12.38093152	     -4.25162924	     -0.93320048	     -2.07107824	     -6.22574358
      0.07000000	      2.58063888	     -0.27659759	     -0.11718435	     -0.60068702	      1.08647555	      1.15896502	     -3.72559999	      0.64299647	     -4.76002831	    -11.56366535	     13.51121149	     -1.58987675	     -4.62895517	      1.23329645	      2.44169492	     -9.43856565	     12.41964523	     -4.25042172	     -0.91139244	     -2.06618730	     -6.18958714
      0.08000000	      2.56867795	     -0.31317278	     -0.22479736	     -0.60076272	      1.08644853	      1.15954204	     -3.71890869	      0.69942408	     -4.66036843	    -11.53093325	     13.50483593	     -1.58079785	     -4.59105913	      1.18007443	      2.34780872	     -9.49275789	     12.45761233	     -4.24742894	     -0.89567980	     -2.06347449	     -6.14798104
      0.09000000	      2.55833016	     -0.34640212	     -0.33475834	     -0.60084169	      1.08642049	      1.16011068	     -3.70757558	      0.75128758	     -4.55864155	    -11.50995228	     13.50330504	     -1.57302008	     -4.55536788	      1.13099151	      2.25265571	     -9.54638676	     12.49540960	     -4.24234559	     -0.88631978	     -2.06185549	     -6.09986804
      0.10000000	      2.55040050	     -0.37600482	     -0.44186901	     -0.60092332	      1.08639151	      1.16066559	     -3.69366189	      0.79903084	     -4.45711179	    -11.49912239	     13.50872988	     -1.56656281	     -4.52052792	      1.08582600	      2.15807115	     -9.60342137	     12.53281341	     -4.23704328	     -0.88548096	     -2.06202292	     -6.05281848
      0.11000000	      2.54345401	     -0.40290295	     -0.54720606	     -0.60100654	      1.08636214	      1.16120560	     -3.67451998	      0.84292777	     -4.35875768	    -11.50058943	     13.51634652	     -1.56144210	     -4.48533234	      1.04391061	      2.06579631	     -9.66271471	     12.56952574	     -4.23122528	     -0.89041794	     -2.06275609	     -6.00319364
      0.12000000	      2.53603420	     -0.42758203	     -0.64890813	     -0.60108913	      1.08632988	      1.16172669	     -3.65039456	      0.88384093	     -4.26385621	    -11.51100289	     13.52675327	     -1.55780814	     -4.44772769	      1.00510027	      1.97466179	     -9.72622552	     12.60609390	     -4.22540357	     -0.89992283	     -2.06369930	     -5.95461740
      0.13000000	      2.52745390	     -0.45028292	     -0.74577321	     -0.60118378	      1.08629696	      1.16223314	     -3.62033290	      0.92251367	     -4.17294190	    -11.52906023	     13.53810706	     -1.55595445	     -4.40570922	      0.96833552	      1.88539467	     -9.79278866	     12.64209026	     -4.21960677	     -0.91449244	     -2.06561406	     -5.90644832
      0.14000000	      2.51847941	     -0.47121112	     -0.83859839	     -0.60127166	      1.08626299	      1.16272815	     -3.58710672	      0.95901449	     -4.08650234	    -11.55378050	     13.55079588	     -1.55606750	     -4.36122934	      0.93314727	      1.79670061	     -9.86353426	     12.67770166	     -4.21445443	     -0.93154088	     -2.06836267	     -5.86070790
      0.15000000	      2.51007881	     -0.48889408	     -0.92289549	     -0.60136410	      1.08623253	      1.16319848	     -3.55231814	      0.99206416	     -4.00930965	    -11.58285949	     13.56109883	     -1.55800043	     -4.31660593	      0.90243828	      1.72058665	     -9.93436218	     12.70736593	     -4.20956819	     -0.95477289	     -2.07308091	     -5.81876373
      0.16000000	      2.50169258	     -0.50491329	     -1.00165578	     -0.60144832	      1.08620302	      1.16365822	     -3.51771508	      1.02354016	     -3.93791392	    -11.61313900	     13.57122114	     -1.56140584	     -4.27308447	      0.87294746	      1.64596510	    -10.00277796	     12.73567417	     -4.20521815	     -0.97946573	     -2.07983312	     -5.77793170
      0.17000000	      2.49610748	     -0.51841904	     -1.06919113	     -0.60152836	      1.08617996	      1.16410116	     -3.48654941	      1.05289055	     -3.87579270	    -11.64465908	     13.58060473	     -1.56543695	     -4.23419416	      0.84508762	      1.57776915	    -10.06711324	     12.75981492	     -4.20189795	     -1.00887727	     -2.09005427	     -5.74229970
      0.18000000	      2.48989052	     -0.52965065	     -1.13220920	     -0.60160014	      1.08615975	      1.16452300	     -3.45727696	      1.07895011	     -3.81985685	    -11.67224414	     13.58676008	     -1.57016293	     -4.19909130	      0.82031135	      1.51829958	    -10.12341550	     12.78033171	     -4.19750560	     -1.03771703	     -2.09940678	     -5.70465889
      0.19000000	      2.48415813	     -0.53831542	     -1.18123643	     -0.60165349	      1.08614140	      1.16493290	     -3.43341551	      1.10418338	     -3.77590733	    -11.69420181	     13.59165022	     -1.57502269	     -4.17029161	      0.79654680	      1.46802727	    -10.16858425	     12.79634562	     -4.19227192	     -1.06528853	     -2.11524318	     -5.67043803
      0.20000000	      2.48270991	     -0.54042175	     -1.20491769	     -0.60170830	      1.08613734	      1.16528554	     -3.42118238	      1.12192260	     -3.76042295	    -11.70468526	     13.59175221	     -1.57625129	     -4.15119093	      0.78043814	      1.46397587	    -10.20120498	     12.79659151	     -4.19016970	     -1.10076556	     -2.13470972	     -5.65075262
      0.21000000	      2.47586235	     -0.54877284	     -1.24543845	     -0.60174231	      1.08612090	      1.16566922	     -3.40266470	      1.14668216	     -3.71838004	    -11.71898813	     13.59725423	     -1.58116841	     -4.12741959	      0.75520784	      1.39316706	    -10.23379723	     12.82062467	     -4.18311893	     -1.12513588	     -2.14809528	     -5.60405466
      0.22000000	      2.47016403	     -0.54845230	     -1.25305923	     -0.60176586	      1.08611335	      1.16598747	     -3.39631320	      1.16232184	     -3.71164730	    -11.71633757	     13.59658563	     -1.58188972	     -4.11137532	      0.73981040	      1.39519451	    -10.25300709	     12.81884960	     -4.17949635	     -1.15074402	     -2.16944099	     -5.57777640
      0.23000000	      2.46324352	     -0.54791361	     -1.25607033	     -0.60178393	      1.08610598	      1.16628839	     -3.39150298	      1.17780846	     -3.70651846	    -11.71009439	     13.59658645	     -1.58260097	     -4.09456344	      0.72402647	      1.38733987	    -10.26989779	     12.82173661	     -4.17496836	     -1.17356762	     -2.18846563	     -5.54454528
      0.24000000	      2.45394036	     -0.54622836	     -1.25109805	     -0.60178703	      1.08609434	      1.16656222	     -3.38843073	      1.19176650	     -3.70423224	    -11.69865378	     13.59685007	     -1.58286163	     -4.07874198	      0.70927900	      1.38319387	    -10.28078358	     12.82471799	     -4.16998155	     -1.19261293	     -2.20628779	     -5.51120721
      0.25000000	      2.44305250	     -0.54323840	     -1.23848235	     -0.60178271	      1.08608204	      1.16680936	     -3.38718315	      1.20433456	     -3.70480672	    -11.68309247	     13.59705556	     -1.58282565	     -4.06197883	      0.69609879	      1.38482699	    -10.28931977	     12.82695750	     -4.16409147	     -1.20901032	     -2.22227012	     -5.47599612
      0.26000000	      2.43046117	     -0.53901770	     -1.21813068	     -0.60176581	      1.08606711	      1.16702980	     -3.38773747	      1.21542980	     -3.70934472	    -11.66316266	     13.59745548	     -1.58260478	     -4.04411782	      0.68434047	      1.39307674	    -10.29682014	     12.82842174	     -4.15707849	     -1.22216714	     -2.23674997	     -5.43882825
      0.27000000	      2.41611898	     -0.53355279	     -1.19089865	     -0.60173049	      1.08604867	      1.16722323	     -3.38968387	      1.22490957	     -3.71901197	    -11.63969561	     13.59831195	     -1.58233271	     -4.02580478	      0.67444410	      1.40814377	    -10.30309366	     12.82911361	     -4.14915427	     -1.23179572	     -2.24953638	     -5.40239217
      0.28000000	      2.40002537	     -0.52663724	     -1.15525474	     -0.60167974	      1.08602796	      1.16739150	     -3.39305480	      1.23291606	     -3.73586332	    -11.61337568	     13.59957862	     -1.58220120	     -4.00620203	      0.66615293	      1.43143720	    -10.30768396	     12.82945381	     -4.13949377	     -1.23687264	     -2.26093325	     -5.36835517
      0.29000000	      2.37008671	     -0.51652272	     -1.08656134	     -0.60160784	      1.08598884	      1.16749950	     -3.38314931	      1.23859792	     -3.79504008	    -11.58926709	     13.59485061	     -1.58385569	     -3.97295646	      0.66066343	      1.50651687	    -10.30840083	     12.83447474	     -4.10265644	     -1.22379206	     -2.27340983	     -5.38111511
